<?xml version="1.0" encoding="UTF-8"?><svg id="_" xmlns="http://www.w3.org/2000/svg" viewBox="0 0 136 136"><defs><style>.cls-1{fill:#009bf4;}.cls-2{fill:#99d7fb;}</style></defs><path class="cls-1" d="m108.85,77.5c0-7.71-12.08-12.65-27-14.59v6.03c13.69,1.89,21,6.1,21,8.56,0,3.23-12.71,9.53-36,9.53s-36-6.3-36-9.53c0-2.46,7.31-6.67,21-8.56v-6.03c-14.92,1.94-27,6.88-27,14.59,0,.14,0,.28.02.41h-.02v40.55c0,10.2,21.13,15.54,42,15.54s42-5.34,42-15.54v-40.55h-.02c.02-.13.02-.27.02-.41Zm-6,20.07c0,2.27-6.24,6.04-18,8.1v6.05c7.25-1.17,13.64-3.1,18-5.74v12.48c0,3.24-12.71,9.54-36,9.54s-36-6.3-36-9.54v-12.48c4.36,2.64,10.75,4.57,18,5.74v-6.05c-11.76-2.06-18-5.83-18-8.1v-11.66c6.09,3.69,16.15,5.98,27,6.78,2.96.23,5.98.34,9,.34s6.04-.11,9-.34c10.85-.8,20.91-3.09,27-6.78v11.66Z"/><polygon class="cls-1" points="75.83 64.46 73.69 68.16 70.32 74 66.85 80 63.38 74 60.01 68.16 57.87 64.46 63.85 64.46 63.85 47 69.85 47 69.85 64.46 75.83 64.46"/><polygon class="cls-2" points="78.85 106.5 78.85 112.5 69.85 112.5 69.85 121.5 63.85 121.5 63.85 112.5 54.85 112.5 54.85 106.5 63.85 106.5 63.85 97.5 69.85 97.5 69.85 106.5 78.85 106.5"/><path class="cls-1" d="m110.35,2.17l-23.3,38.83h46.6L110.35,2.17Zm0,11.66l12.7,21.17h-25.4l12.7-21.17Z"/><path class="cls-1" d="m66.85,2c-10.75,0-19.5,8.75-19.5,19.5s8.75,19.5,19.5,19.5,19.5-8.75,19.5-19.5S77.6,2,66.85,2Zm0,33c-7.44,0-13.5-6.06-13.5-13.5s6.06-13.5,13.5-13.5,13.5,6.06,13.5,13.5-6.06,13.5-13.5,13.5Z"/><path class="cls-1" d="m2.35,2v39h39V2H2.35Zm33,33H8.35V8h27v27Z"/></svg>